<svg xmlns="http://www.w3.org/2000/svg" viewBox="0 0 400 400"><path fill="#1da1f2" d="M350 400H50a50 50 0 0 1-50-50V50A50 50 0 0 1 50 0h300a50 50 0 0 1 50 50v300a50 50 0 0 1-50 50z"/><path fill="#fff" d="M153.6 301.6c94.3 0 145.9-78.2 145.9-145.9l-.1-6.6c10-7.2 18.7-16.3 25.6-26.6a104 104 0 0 1-29.5 8.1 51.6 51.6 0 0 0 22.6-28.4 102 102 0 0 1-32.6 12.4 51.2 51.2 0 0 0-87.4 46.8 145.6 145.6 0 0 1-105.7-53.6 51.3 51.3 0 0 0 15.9 68.5 51.9 51.9 0 0 1-23.2-6.4v.7a51.4 51.4 0 0 0 41.1 50.3 50 50 0 0 1-23.1.9 51.3 51.3 0 0 0 47.9 35.6 102.8 102.8 0 0 1-75.9 21.3 145.9 145.9 0 0 0 78.5 22.9"/></svg>